<svg width="18" height="16" viewBox="0 0 18 16" fill="none" xmlns="http://www.w3.org/2000/svg">
<path d="M5.84647 8.61531C5.84647 8.27131 5.80304 7.93744 5.72137 7.6189L8.61539 4.87838L11.51 7.61966C11.4284 7.93797 11.3851 8.27158 11.3851 8.61531V12H5.84647V8.61531Z" stroke="white" stroke-width="8" stroke-miterlimit="10" stroke-linecap="round" stroke-linejoin="round"/>
<mask id="path-2-inside-1" fill="white">
<path d="M11.0773 16H6.15417V12.3077C6.15417 10.9483 7.25634 9.8461 8.61574 9.8461C9.97513 9.8461 11.0773 10.9483 11.0773 12.3077V16Z"/>
</mask>
<path d="M11.0773 16V45C27.0936 45 40.0773 32.0163 40.0773 16H11.0773ZM6.15417 16H-22.8458C-22.8458 32.0163 -9.86208 45 6.15417 45L6.15417 16ZM11.0773 -13H6.15417V45H11.0773V-13ZM35.1542 16V12.3077H-22.8458V16H35.1542ZM35.1542 12.3077C35.1542 26.9645 23.2726 38.8461 8.61574 38.8461V-19.1539C-8.75992 -19.1539 -22.8458 -5.06799 -22.8458 12.3077H35.1542ZM8.61574 38.8461C-6.04112 38.8461 -17.9227 26.9645 -17.9227 12.3077H40.0773C40.0773 -5.06799 25.9914 -19.1539 8.61574 -19.1539V38.8461ZM-17.9227 12.3077V16H40.0773V12.3077H-17.9227Z" fill="#E3711E" mask="url(#path-2-inside-1)"/>
</svg>
