<svg viewBox="0 0 300 300" xml:space="preserve" xmlns="http://www.w3.org/2000/svg"><path d="M34.5 186.5c0 8.284 6.716 15 15 15h204c8.284 0 15-6.716 15-15v-52c0-8.284-6.716-15-15-15h-204c-8.284 0-15 6.716-15 15v52z" fill="none" stroke="#ffffff" stroke-linecap="round" stroke-linejoin="round" stroke-miterlimit="10" stroke-width="7" class="stroke-000000"></path><path fill="none" stroke="#ffffff" stroke-linecap="round" stroke-linejoin="round" stroke-miterlimit="10" stroke-width="7" d="M60.5 174.5h144v27h-144z" class="stroke-000000"></path><circle cx="224.667" cy="183.5" r="5" fill="#ffffff" class="fill-000000"></circle><circle cx="244.667" cy="183.5" r="5" fill="#ffffff" class="fill-000000"></circle><path fill="none" stroke="#ffffff" stroke-linecap="round" stroke-linejoin="round" stroke-miterlimit="10" stroke-width="7" d="M60 139.5h185M60 155.5h185M72.5 222v18M102.5 222v28M132.5 222v38M162.5 222v28M192.5 222v18" class="stroke-000000"></path></svg>