<svg width="15" height="16" viewBox="0 0 15 16" fill="none" xmlns="http://www.w3.org/2000/svg">
<path d="M14.3256 9.6L13.5226 9.13333C12.6526 8.6 12.6526 7.33333 13.5226 6.8L14.3256 6.33333C14.9947 5.93333 15.1955 5.13333 14.794 4.53333L14.1248 3.4C13.7233 2.73333 12.9203 2.53333 12.3181 2.93333L11.515 3.4C10.6451 3.93333 9.50752 3.26667 9.50752 2.26667V1.33333C9.50752 0.6 8.90526 0 8.16917 0H6.83083C6.09474 0 5.49248 0.6 5.49248 1.33333V2.2C5.49248 3.2 4.35488 3.86667 3.48496 3.33333L2.68195 2.93333C2.01278 2.53333 1.20977 2.8 0.87518 3.4L0.206007 4.53333C-0.12858 5.2 0.0721719 6 0.674428 6.4L1.47744 6.86667C2.34736 7.33333 2.34736 8.66667 1.47744 9.13333L0.674428 9.6C0.00525456 10 -0.195498 10.8 0.206007 11.4L0.87518 12.5333C1.27668 13.2 2.07969 13.4 2.68195 13L3.48496 12.6C4.35488 12.0667 5.49248 12.7333 5.49248 13.7333V14.6667C5.49248 15.4 6.09474 16 6.83083 16H8.16917C8.90526 16 9.50752 15.4 9.50752 14.6667V13.8C9.50752 12.8 10.6451 12.1333 11.515 12.6667L12.3181 13.1333C12.9872 13.5333 13.7902 13.2667 14.1248 12.6667L14.794 11.5333C15.1286 10.8 14.9278 10 14.3256 9.6ZM7.5 10.6667C6.02782 10.6667 4.82331 9.46667 4.82331 8C4.82331 6.53333 6.02782 5.33333 7.5 5.33333C8.97218 5.33333 10.1767 6.53333 10.1767 8C10.1767 9.46667 8.97218 10.6667 7.5 10.6667Z" fill="#464646"/>
</svg>
