<svg width="60" height="37" viewBox="0 0 60 37" fill="none" xmlns="http://www.w3.org/2000/svg">
<path d="M1 17.6068C1 19.6601 2.66465 21.3248 4.71795 21.3248H55.2821C57.3354 21.3248 59 19.6601 59 17.6068V4.71795C59 2.66465 57.3354 1 55.2821 1H4.71795C2.66465 1 1 2.66465 1 4.71795V17.6068Z" stroke="#464646" stroke-width="1.7" stroke-miterlimit="10" stroke-linecap="round" stroke-linejoin="round"/>
<path d="M43.1368 14.6325H7.44446V21.3248H43.1368V14.6325Z" stroke="#464646" stroke-width="1.7" stroke-miterlimit="10" stroke-linecap="round" stroke-linejoin="round"/>
<path d="M48.1354 18.1026C48.8199 18.1026 49.3748 17.5477 49.3748 16.8633C49.3748 16.1788 48.8199 15.624 48.1354 15.624C47.451 15.624 46.8961 16.1788 46.8961 16.8633C46.8961 17.5477 47.451 18.1026 48.1354 18.1026Z" fill="#464646"/>
<path d="M53.0927 18.1026C53.7772 18.1026 54.332 17.5477 54.332 16.8633C54.332 16.1788 53.7772 15.624 53.0927 15.624C52.4083 15.624 51.8534 16.1788 51.8534 16.8633C51.8534 17.5477 52.4083 18.1026 53.0927 18.1026Z" fill="#464646"/>
<path d="M7.32056 5.95728H53.1753" stroke="#464646" stroke-width="1.7" stroke-miterlimit="10" stroke-linecap="round" stroke-linejoin="round"/>
<path d="M7.32056 9.9231H53.1753" stroke="#464646" stroke-width="1.7" stroke-miterlimit="10" stroke-linecap="round" stroke-linejoin="round"/>
<path d="M10.4188 26.406V30.8675" stroke="#464646" stroke-width="1.7" stroke-miterlimit="10" stroke-linecap="round" stroke-linejoin="round"/>
<path d="M17.8547 26.406V33.3462" stroke="#464646" stroke-width="1.7" stroke-miterlimit="10" stroke-linecap="round" stroke-linejoin="round"/>
<path d="M25.2906 26.406V35.8248" stroke="#464646" stroke-width="1.7" stroke-miterlimit="10" stroke-linecap="round" stroke-linejoin="round"/>
<path d="M32.7264 26.406V33.3462" stroke="#464646" stroke-width="1.7" stroke-miterlimit="10" stroke-linecap="round" stroke-linejoin="round"/>
<path d="M40.1624 26.406V30.8675" stroke="#464646" stroke-width="1.7" stroke-miterlimit="10" stroke-linecap="round" stroke-linejoin="round"/>
</svg>
