<svg width="26" height="34" viewBox="0 0 26 34" fill="none" xmlns="http://www.w3.org/2000/svg">
<path fill-rule="evenodd" clip-rule="evenodd" d="M11.2433 8.14579C11.2433 9.12314 12.0305 9.91658 13 9.91658C13.9697 9.91658 14.7569 9.12314 14.7569 8.14579C14.7569 7.16844 13.9697 6.375 13 6.375C12.0305 6.37493 11.2433 7.16844 11.2433 8.14579ZM11.2433 23.0209C11.2433 22.0433 12.0305 21.25 13 21.25C13.9697 21.25 14.7569 22.0433 14.7569 23.0209C14.7569 23.9984 13.9697 24.7916 13 24.7916C12.0305 24.7915 11.2433 23.9984 11.2433 23.0209ZM13 18.4167C10.4775 18.4167 8.43245 20.4781 8.43245 23.0209C8.43245 25.5638 10.4775 27.6252 13 27.6252C15.5225 27.6252 17.5676 25.5639 17.5676 23.0209C17.5676 20.4781 15.5225 18.4167 13 18.4167ZM0 31.1668C0 32.7322 1.25791 34 2.81089 34H23.1893C24.7423 34 26 32.7322 26 31.1668V2.8332C26 1.26792 24.7423 0 23.1893 0H2.81089C1.25791 0 0 1.268 0 2.8332V31.1668ZM10.0485 16.1997C10.8782 15.8028 11.454 14.9385 11.454 13.947C11.454 13.1819 11.1102 12.5019 10.5687 12.0486C9.28268 11.234 8.43237 9.78934 8.43237 8.14571C8.43237 5.60293 10.4774 3.5415 13 3.5415C15.5224 3.5415 17.5676 5.60293 17.5676 8.14571C17.5676 9.7184 16.7803 11.1136 15.5859 11.9423C14.9605 12.3889 14.5597 13.1256 14.5597 13.9543C14.5597 14.9528 15.1431 15.817 15.9865 16.2064L16.0427 16.2349C18.6003 17.4039 20.3782 20.0035 20.3782 23.0209C20.3782 27.1291 17.0755 30.4583 13 30.4583C8.92443 30.4583 5.62155 27.1291 5.62155 23.0209C5.62163 19.9675 7.4416 17.3474 10.0485 16.1997Z" fill="#464646"/>
</svg>
