<svg width="51" height="37" viewBox="0 0 51 37" fill="none" xmlns="http://www.w3.org/2000/svg">
<path fill-rule="evenodd" clip-rule="evenodd" d="M49.8913 32.6471H1.1087C0.495587 32.6471 0 32.1606 0 31.5588V1.08824C0 0.487529 0.495587 0 1.1087 0H49.8913C50.5044 0 51 0.487529 51 1.08824V31.5588C51 32.1606 50.5044 32.6471 49.8913 32.6471ZM48.7826 2.17647H2.21739V30.4706H48.7826V2.17647ZM22.1739 9.79412C22.4112 9.79412 22.6174 9.88335 22.7981 10.0074L31.4138 15.3093C31.8417 15.4584 32.1522 15.8512 32.1522 16.3235C32.1522 16.6772 31.9692 16.9776 31.7031 17.1756L22.8624 22.5961C22.6717 22.7485 22.4378 22.8529 22.1739 22.8529C21.5608 22.8529 21.0652 22.3665 21.0652 21.7647V10.8824C21.0652 10.2816 21.5608 9.79412 22.1739 9.79412ZM15.5217 34.8235H35.4783C36.0914 34.8235 36.587 35.31 36.587 35.9118C36.587 36.5136 36.0914 37 35.4783 37H15.5217C14.9086 37 14.413 36.5136 14.413 35.9118C14.413 35.31 14.9086 34.8235 15.5217 34.8235Z" fill="#464646"/>
</svg>
