<svg width="21" height="32" viewBox="0 0 21 32" fill="none" xmlns="http://www.w3.org/2000/svg">
<path d="M16.2746 26.1345V27.2009C16.2738 27.9078 15.9969 28.5855 15.5048 29.0853C15.0126 29.5851 14.3453 29.8663 13.6493 29.8671H13.0717C12.9506 30.4692 12.6285 31.0104 12.1597 31.399C11.6909 31.7877 11.1044 32 10.4992 32C9.89407 32 9.3075 31.7877 8.83873 31.399C8.36997 31.0104 8.0478 30.4692 7.92671 29.8671H7.34863C6.6526 29.8663 5.98531 29.5851 5.49314 29.0853C5.00098 28.5855 4.72413 27.9078 4.72335 27.2009V26.1345C4.72382 25.7104 4.88993 25.3038 5.18522 25.0039C5.48052 24.704 5.8809 24.5353 6.29852 24.5348H14.6994C15.117 24.5353 15.5174 24.704 15.8127 25.0039C16.108 25.3038 16.2741 25.7104 16.2746 26.1345ZM17.7665 2.95629C16.7563 1.97582 15.5636 1.20985 14.2583 0.703202C12.953 0.196557 11.5613 -0.0405808 10.1647 0.00566855C8.76807 0.0519179 7.39456 0.380625 6.12454 0.972551C4.85453 1.56448 3.71353 2.40773 2.76834 3.45296C1.82314 4.49818 1.09274 5.72438 0.619875 7.05978C0.147011 8.39518 -0.0588121 9.81296 0.0144519 11.2301C0.087716 12.6473 0.438596 14.0354 1.04655 15.3132C1.65451 16.591 2.50733 17.7327 3.5551 18.6717C3.92467 19.0062 4.21996 19.4167 4.42138 19.8759C4.62279 20.3352 4.72573 20.8327 4.72335 21.3354C4.72382 21.7595 4.88993 22.1662 5.18522 22.4661C5.48052 22.7659 5.8809 22.9346 6.29852 22.9351H14.6994C15.117 22.9346 15.5174 22.7659 15.8127 22.466C16.108 22.1661 16.2741 21.7595 16.2746 21.3354C16.2728 20.8317 16.3765 20.3333 16.5788 19.8732C16.781 19.4132 17.0772 19.0021 17.4477 18.6672C18.537 17.6892 19.4148 16.4925 20.0259 15.1527C20.6369 13.8129 20.9678 12.359 20.9978 10.8827C21.0277 9.40652 20.756 7.94001 20.1999 6.57576C19.6437 5.21151 18.8152 3.97914 17.7665 2.95643V2.95629Z" fill="#464646"/>
</svg>
